<svg id="Capa_1" data-name="Capa 1" xmlns="http://www.w3.org/2000/svg" viewBox="0 0 88.12 72.68"><defs><style>.cls-1{fill:#d9d9d9;}</style></defs><title>Cafecito</title><path class="cls-1" d="M509.59,365.57a22.17,22.17,0,0,0,21.7,17.65h28.35a22.16,22.16,0,0,0,22.16-22.15V324.5a3.62,3.62,0,0,0-3.62-3.61h0a3.62,3.62,0,0,0-3.62,3.61v36.9A14.58,14.58,0,0,1,560,376H531a14.59,14.59,0,0,1-14.59-14.58V324.5a3.61,3.61,0,0,0-3.61-3.61h0a3.62,3.62,0,0,0-3.62,3.61v4.1a18.74,18.74,0,0,0,.45,37ZM500.91,347a11.5,11.5,0,0,1,8.23-11v22.05A11.5,11.5,0,0,1,500.91,347Z" transform="translate(-493.68 -320.89)"/><path class="cls-1" d="M578.17,386.34H512.72A3.62,3.62,0,0,0,509.1,390h0a3.62,3.62,0,0,0,3.62,3.62h65.45a3.61,3.61,0,0,0,3.61-3.62h0A3.61,3.61,0,0,0,578.17,386.34Z" transform="translate(-493.68 -320.89)"/></svg>