<svg id="Capa_1" data-name="Capa 1" xmlns="http://www.w3.org/2000/svg" viewBox="0 0 72.81 72.81"><defs><style>.cls-1{fill:#d9d9d9;}</style></defs><title>Instagram</title><path class="cls-1" d="M529.69,297.87H501.28a22.2,22.2,0,0,0-22.2,22.2v28.41a22.2,22.2,0,0,0,22.2,22.2h28.41a22.2,22.2,0,0,0,22.2-22.2V320.07A22.2,22.2,0,0,0,529.69,297.87Zm14.95,50.94A14.63,14.63,0,0,1,530,363.43H500.94a14.62,14.62,0,0,1-14.61-14.62V319.74a14.62,14.62,0,0,1,14.61-14.62H530a14.63,14.63,0,0,1,14.62,14.62Z" transform="translate(-479.08 -297.87)"/><path class="cls-1" d="M534.25,334.28a18.77,18.77,0,1,1-18.77-18.78A18.77,18.77,0,0,1,534.25,334.28Zm-18.77-11.52A11.52,11.52,0,1,0,527,334.28,11.52,11.52,0,0,0,515.48,322.76Z" transform="translate(-479.08 -297.87)"/><circle class="cls-1" cx="55.25" cy="17.7" r="4.48"/></svg>